<svg width="340" height="127" viewBox="0 0 340 127" fill="none" xmlns="http://www.w3.org/2000/svg">
<rect width="340" height="127" fill="white"/>
<path d="M107.184 84.1698H110.807C111.421 84.1698 111.428 84.2279 111.421 82.5471V82.1727H113.678V88.4136H101.888L98.19 78.4281H87.6855C92.1283 77.4161 95.444 73.4416 95.444 68.6923C95.444 63.1775 90.9733 58.7069 85.4585 58.7069C79.9437 58.7069 75.4731 63.1775 75.4731 68.6923C75.4731 73.4416 78.7888 77.4161 83.2316 78.4281H72.4774L68.7792 88.4136H57V82.1727H59.2577V82.6719C59.2577 84.2946 59.3715 84.1698 59.9956 84.1698H63.5973L82.2133 38.4863H88.4542L107.184 84.1698Z" fill="black"/>
<path d="M257.821 65.2477V88.2048H251.826V50.0423H257.618V56.0052H258.126C259.041 54.0673 260.43 52.5103 262.293 51.3343C264.156 50.1417 266.561 49.5454 269.508 49.5454C272.15 49.5454 274.462 50.0754 276.444 51.1355C278.426 52.179 279.967 53.7691 281.068 55.9058C282.169 58.026 282.719 60.7093 282.719 63.9557V88.2048H276.723V64.3533C276.723 61.3552 275.927 59.0198 274.335 57.3469C272.743 55.6574 270.558 54.8126 267.781 54.8126C265.867 54.8126 264.156 55.2184 262.649 56.0301C261.158 56.8417 259.981 58.026 259.117 59.5829C258.253 61.1399 257.821 63.0282 257.821 65.2477Z" fill="black"/>
<path d="M224.275 88.9999C220.752 88.9999 217.661 88.18 215.002 86.5402C212.36 84.9004 210.294 82.6063 208.803 79.658C207.33 76.7097 206.593 73.2645 206.593 69.3223C206.593 65.3471 207.33 61.877 208.803 58.9121C210.294 55.9472 212.36 53.6449 215.002 52.0051C217.661 50.3653 220.752 49.5454 224.275 49.5454C227.798 49.5454 230.881 50.3653 233.523 52.0051C236.182 53.6449 238.248 55.9472 239.722 58.9121C241.212 61.877 241.958 65.3471 241.958 69.3223C241.958 73.2645 241.212 76.7097 239.722 79.658C238.248 82.6063 236.182 84.9004 233.523 86.5402C230.881 88.18 227.798 88.9999 224.275 88.9999ZM224.275 83.7327C226.951 83.7327 229.153 83.0618 230.881 81.7202C232.608 80.3785 233.887 78.6145 234.717 76.4281C235.547 74.2417 235.962 71.8731 235.962 69.3223C235.962 66.7715 235.547 64.3947 234.717 62.1917C233.887 59.9888 232.608 58.2082 230.881 56.85C229.153 55.4917 226.951 54.8126 224.275 54.8126C221.599 54.8126 219.397 55.4917 217.67 56.85C215.942 58.2082 214.663 59.9888 213.833 62.1917C213.004 64.3947 212.589 66.7715 212.589 69.3223C212.589 71.8731 213.004 74.2417 213.833 76.4281C214.663 78.6145 215.942 80.3785 217.67 81.7202C219.397 83.0618 221.599 83.7327 224.275 83.7327Z" fill="black"/>
<path d="M182.275 88.2051V50.0426H188.068V55.8067H188.474C189.186 53.9185 190.473 52.3863 192.336 51.2103C194.199 50.0343 196.299 49.4463 198.637 49.4463C199.077 49.4463 199.628 49.4546 200.288 49.4711C200.949 49.4877 201.448 49.5125 201.787 49.5457V55.5086C201.584 55.4589 201.118 55.3843 200.39 55.285C199.678 55.169 198.925 55.111 198.129 55.111C196.232 55.111 194.538 55.5003 193.047 56.2788C191.574 57.0407 190.405 58.1008 189.541 59.459C188.695 60.8006 188.271 62.3328 188.271 64.0554V88.2051H182.275Z" fill="black"/>
<path d="M171.245 38V88.2049H165.029V38H171.245Z" fill="black"/>
<path d="M120.928 88.2049V38H138.274C142.302 38 145.594 38.7109 148.151 40.1327C150.724 41.5382 152.629 43.4421 153.866 45.8445C155.103 48.2469 155.721 50.9271 155.721 53.8851C155.721 56.8432 155.103 59.5316 153.866 61.9503C152.646 64.369 150.758 66.2975 148.201 67.7356C145.644 69.1574 142.368 69.8683 138.374 69.8683H125.941V64.4752H138.174C140.931 64.4752 143.146 64.0095 144.817 63.0779C146.488 62.1464 147.699 60.888 148.451 59.3028C149.22 57.7012 149.604 55.8953 149.604 53.8851C149.604 51.875 149.22 50.0773 148.451 48.492C147.699 46.9068 146.479 45.6647 144.792 44.7659C143.104 43.8507 140.864 43.3931 138.074 43.3931H127.144V88.2049H120.928Z" fill="black"/>
</svg>
